# xmcd
#
# Track frame offsets:
#  150
#  15690
#  43387
#  56885
#  71960
#  81147
#  96595
#  109512
#  131302
#  147445
#  163487
#  179360
#  194350
#  214127
#  230992
#  249570
#  267027
#  281697
#  305165
#
# Disc length: 4420 seconds
#
# Revision: 0
# Processed by: cddbd v1.5.1PL0 Copyright (c) Steve Scherf et al.
# Submitted via: AltoMP3_Maker 3.0
#
DISCID=33114213
DTITLE=Small Town Blues Band - 11 Blues Hits
DYEAR=1900
DGENRE=
TTITLE0=Barstool Blues
TTITLE1=Angel in the night
TTITLE2=Organizers Blues
TTITLE3=Take off with the breeze
TTITLE4=Those lonely, lonely nights
TTITLE5=Before you accuse me
TTITLE6=Let your Daddy see
TTITLE7=Just a dream
TTITLE8=Booker for T
TTITLE9=Cryin' Time
TTITLE10=Jake's Boogie
TTITLE11=What's wrong
TTITLE12=When love goes wrong
TTITLE13=Statesboro Blues
TTITLE14=Miss Loving Blues
TTITLE15=Oh Baby
TTITLE16=All these Blues
TTITLE17=Flip, Flop and Fly
TTITLE18=The Blues is here to stay
EXTD=
EXTT0=
EXTT1=
EXTT2=
EXTT3=
EXTT4=
EXTT5=
EXTT6=
EXTT7=
EXTT8=
EXTT9=
EXTT10=
EXTT11=
EXTT12=
EXTT13=
EXTT14=
EXTT15=
EXTT16=
EXTT17=
EXTT18=
PLAYORDER=
